# xmcd
#
# Track frame offsets:
#	182
#	12082
#	29107
#	37282
#	55282
#	68482
#	80332
#	91507
#	108982
#	118957
#	130882
#	142657
#	155707
#	170482
#	185332
#	204607
#	222907
#	235732
#	247882
#	264307
#	277057
#	294607
#	304132
#	317782
#	333157
#
# Disc length: 4672 seconds
#
# Revision: 0
# Processed by: cddbd v1.5.2PL0 Copyright (c) Steve Scherf et al.
# Submitted via: audiograbber 1.83.01
#
DISCID=6a123e19
DTITLE=Reg Poole - Rodeo Fever 
DYEAR=2002
DGENRE=Country
TTITLE0=Goin Rodeoin 
TTITLE1=Rodeo Man
TTITLE2=15 Hundred Pounds Of Bull
TTITLE3=The Rodeo Queen
TTITLE4=Heroes Of The Circuit
TTITLE5=Down In The Well
TTITLE6=Shepparton Rodeo
TTITLE7=The Winners Crown
TTITLE8=Singin Rodeo Rider
TTITLE9=Rodeo Cowboys
TTITLE10=Maguire The Iron Man
TTITLE11=Heading For The Warwick Rodeo
TTITLE12=Rodeo Fever
TTITLE13=Roughest Old Roughrider
TTITLE14=Tomorrow We Ride The Rodeo
TTITLE15=High Hookin
TTITLE16=Rodeo Wife
TTITLE17=Farewell To Your Town
TTITLE18=King Of The Rodeo
TTITLE19=Ill Settle For A Saddle
TTITLE20=Memory Park
TTITLE21=Ups And Dpwns
TTITLE22=Ted Hintz
TTITLE23=King Without A Crown
TTITLE24=Ride On Down The Road
EXTD=
EXTT0=
EXTT1=
EXTT2=
EXTT3=
EXTT4=
EXTT5=
EXTT6=
EXTT7=
EXTT8=
EXTT9=
EXTT10=
EXTT11=
EXTT12=
EXTT13=
EXTT14=
EXTT15=
EXTT16=
EXTT17=
EXTT18=
EXTT19=
EXTT20=
EXTT21=
EXTT22=
EXTT23=
EXTT24=
PLAYORDER=
